<svg xmlns="http://www.w3.org/2000/svg" data-name="Layer 2" viewBox="0 0 1163.7 634.7">
  <g data-name="Layer 18">
    <text transform="translate(0 607.32)" font-size="90.31" font-family="Georgia,Georgia">
      <tspan x="0" y="0">TINY GARDEN SOLUTIONS</tspan>
    </text>
    <path stroke="#000" stroke-miterlimit="10" stroke-width="5" d="M569.75 0v496.45"/>
    <text transform="translate(639.37 362.96)" font-family="Georgia,Georgia" font-size="272.92">
      <tspan x="0" y="0">TGS</tspan>
    </text>
    <path d="M373.55 380.37c5.14-.36 9.99.05 14.96 1.27-.53.92-.94 1.62-1.47 2.53 4.15.29 8.13.73 11.75 3.1-.57.66-1.06 1.22-1.7 1.95 9.27 1.64 18.35 3.26 26.97 6.61l.03.49c-.67.29-1.32.68-2.03.85-4.5 1.09-8.98 2.25-13.51 3.16-3.47.7-7.01 1.05-10.52 1.57-.34.05-.66.18-1.15.32.58.63 1.06 1.14 1.63 1.77-1.77 1.29-3.74 1.81-5.72 2.15-1.99.34-4.01.44-6.16.66.43.81.84 1.58 1.37 2.59-5.01 1.09-9.87 1.38-15.03.76.95 1.53 1.78 2.88 2.74 4.42-2.85 1.11-5.52.45-8.14.18-2.68-.28-5.23-1.13-7.86-2.07 1.02 1.72 2.04 3.44 3.08 5.19-2.97 1.24-9.06.14-14.27-2.51-.25 2.02 1.86 3.18 1.78 5.31-.67.03-1.3.15-1.91.07-4.1-.55-7.93-1.94-11.55-3.92-.52-.28-1.04-.58-1.78-1 .02 2.1 1.62 3.32 2.08 5.25-.61.12-1.21.3-1.82.33-2.23.1-4.32-.52-6.22-1.61-1.61-.92-3.06-2.11-4.57-3.19-.37-.27-.72-.56-1.46-1.14.21 1.41.36 2.38.51 3.36.21 1.34-.02 1.65-1.39 1.47-.88-.12-1.79-.33-2.6-.69-2.19-.99-4.33-2.09-6.48-3.16-.51-.25-1.01-.53-1.51-.8-.1.08-.2.16-.3.25.45 1.06.9 2.12 1.36 3.21-.65.76-1.4.72-2.19.59-3.6-.59-6.71-2.22-9.59-4.39-.47-.36-.94-.72-1.68-1.29-.13.77-.23 1.32-.31 1.87-.19 1.38-.33 1.51-1.7 1.28-1.29-.21-1.86.76-2.94 1.61 3.63.42 7.08.61 9.56 3.78-1.25.53-2.3.97-3.36 1.41 3.49 1.3 6.92 2.33 9.97 5.01-1.36.59-2.41 1.04-3.46 1.5 3.34 1.08 5.98 2.92 8.45 5.59-1.53.49-2.76.89-4.27 1.38 3.62 1.48 6.67 3.25 9.13 6.4-1.26.38-2.21.67-3.4 1.04 2.67 2.26 5.08 4.48 6.99 7.34-.64.27-1.16.49-1.81.77 2.04 1.95 3.83 3.95 4.64 6.76-.57.15-1.04.28-1.65.44 3.88 4.81 7.67 9.48 10.53 14.8.1.19.11.44.17.69-2.26-.24-2.84-.55-16.58-8.88-.11.52-.2.98-.31 1.51-1.49.06-2.68-.68-3.85-1.37-1.12-.67-2.15-1.49-3.29-2.3-.18.56-.34 1.04-.55 1.7-2.99-1.62-5.5-3.61-7.98-6.11-.26 1.27-.46 2.29-.72 3.57-3.21-2.13-5.38-4.85-7.35-8-.25 1.23-.5 2.47-.81 3.99-2.87-2.16-4.95-4.54-6-7.84-1.21.84-.59 2.38-1.6 3.34-2.84-2.45-4.24-5.82-5.96-9.16-.17.55-.35 1.09-.49 1.64-.14.52-.24 1.04-.38 1.64-.87.03-1.33-.56-1.79-1.06-1.42-1.56-2.2-3.43-2.61-5.47-.14-.68-.25-1.37-.44-2.43-.77 1.08-1.32 1.83-1.96 2.72-2.33-2.09-2.82-5.04-4.16-7.82-.43.91-.74 1.58-1.05 2.24-2.02-.78-3.26-3.09-4.53-8.4-.62.36-1.2.7-1.79 1.04-1.36-.84-1.53-2.3-2.06-3.55-.51-1.21-1.01-2.42-1.49-3.56-.28-.02-.44-.08-.5-.03-1.25 1.07-1.72 1.02-2.19-.55-.5-1.66-.79-3.39-1.13-5.1-.19-.94-.29-1.89-.48-3.1-.61.5-1.08.88-1.61 1.3-1.1-.62-.15-8.43-.47-9.52-1.33-4.56-3.22-2.29-4.57-6.85-.17-.56-1.11-1.21-1.31-1.76h-.37c-.22 1.68-.48 3.35-.66 5.03-.97 9.23-1.66 18.49-1.14 27.77.3 5.4.96 10.79 1.6 16.17.85 7.14 1.07 14.29.8 21.46-.02.54-.14 1.07-.23 1.73h-3.51c0-.56-.01-1.03 0-1.49.32-8.87-.41-17.68-1.33-26.5-.65-6.22-1.79-12.42-1.48-18.71.26-5.41.77-10.81 1.2-16.21.2-2.51.5-5.02.47-7.65-.25.6-.57 1.17-.73 1.79-1 3.72-1.95 7.45-2.95 11.17-.31 1.15-.71 2.26-1.15 3.64-.68-.59-1.15-.99-1.84-1.59-.22 1.34-.4 2.49-.61 3.64-.24 1.3-.45 2.61-.8 3.89-.21.77-.67 1.47-1.11 2.38-.63-.51-1.03-.84-1.46-1.19-.13.09-.34.16-.4.29-.68 1.54-1.34 3.09-2.01 4.63-.35.81-.56 1.72-1.5 2.28-.54-.35-1.07-.69-1.72-1.11-.96 3.2-1.52 6.52-4.48 8.79-.38-.93-.69-1.68-1.12-2.73-1.46 2.9-2.09 5.93-4.46 8.16l-.91-1.21c-.27-.37-.54-.74-1.01-1.4-.16.74-.29 1.17-.35 1.61-.27 2-.89 3.89-2.12 5.5-.56.73-1.32 1.32-2.21 2.2-.41-1.47-.73-2.58-1.15-4.09-.36.77-.54 1.18-.75 1.57-1.11 2.06-2.19 4.14-3.37 6.16-.41.69-1.09 1.23-1.89 2.09l-1.12-3.59c-1.43 3.17-3.48 5.6-6.35 7.78-.32-1.48-.59-2.73-.93-4.33-1.84 3.4-3.9 6.21-7.01 8.19-.84-.92-.42-2.15-1.06-3.23-2.38 2.3-4.87 4.43-7.91 6.07-.17-.68-.29-1.17-.47-1.9-2.22 1.64-4.24 3.37-7.07 3.81-.09-.3-.16-.56-.23-.82-.06-.2-.11-.41-.21-.75-5.39 3.43-10.6 6.86-16.52 9.19.3-1.96 2.75-5.61 10.56-15.78-.51-.15-.98-.28-1.6-.46.9-2.66 2.52-4.77 4.69-6.72-.62-.28-1.13-.51-1.85-.84 1.95-2.7 4.23-5.03 7.07-7.24-1.16-.39-2.12-.72-3.36-1.13 2.33-3.09 5.38-4.85 9.1-6.35-1.56-.5-2.8-.9-4.17-1.33 1.1-1.6 2.46-2.6 3.91-3.43 1.38-.8 2.89-1.39 4.53-2.16-1.15-.49-2.17-.92-3.46-1.47 1.34-1.62 2.99-2.33 4.61-3.01 1.65-.7 3.37-1.22 5.45-1.95-1.33-.55-2.38-.99-3.43-1.43 1.14-2.33 3.03-3.14 9-3.85-.82-1.48-1.46-1.83-3.02-1.54-.85.16-1.26-.18-1.39-.97-.11-.68-.2-1.37-.34-2.32-.72.55-1.19.9-1.65 1.26-2.86 2.19-5.99 3.79-9.58 4.41-.3.05-.6.12-.89.12-1.16-.03-1.51-.57-1.03-1.62.33-.74.69-1.47 1.12-2.37-.92-.14-1.33.37-1.83.61-2.56 1.19-5.1 2.41-7.67 3.57-.88.39-1.83.56-3 .1l.54-4.16-.29-.2c-.43.36-.87.71-1.29 1.08-2.28 2.04-4.81 3.64-7.83 4.29-1.16.25-2.38.23-3.58.26-.32 0-.64-.23-1.02-.37.5-1.78 1.99-3.06 2.2-5.21-4.55 2.69-9.1 4.5-14.07 5.08-.38.04-.8-.13-1.27-.22-.15-2.04 1.99-3.22 1.82-5.33-4.42 2.72-9.11 3.4-14.23 2.96.53-2.27 2.23-3.65 3.03-5.82-5.15 2.21-10.28 3.21-15.78 2.46.18-1.94 1.72-2.99 2.4-4.71-5.08.61-9.94.28-15-.77.54-.97.96-1.74 1.55-2.8-4.31.13-8.28-.4-12.08-2.54.6-.66 1.06-1.17 1.75-1.93-.75-.12-1.3-.23-1.85-.29-7.6-.91-15.11-2.23-22.47-4.36-1.01-.29-1.98-.72-2.96-1.09v-.41c.75-.33 1.48-.71 2.24-.99 5.33-1.93 10.86-3.11 16.4-4.26 2.7-.56 5.43-1 8.34-1.53-.58-.69-1.06-1.25-1.64-1.94 3.58-2.39 7.54-2.83 11.73-3.1-.5-.86-.91-1.56-1.47-2.52 4.93-1.27 9.78-1.64 14.96-1.3-.99-1.49-1.88-2.84-2.9-4.37 2.88-1.07 5.56-.65 8.21-.43 2.65.21 5.18.92 7.86 1.8-1.06-1.67-2.13-3.34-3.29-5.16 2.6-.88 5.03-.45 7.43-.2 2.45.26 4.76 1.07 7.03 2.47.03-2.17-2.04-3.32-2-5.49 5.61-.15 10.48 1.92 15.41 4.43-.09-2.07-1.79-3.24-2.19-5 .83-.76 1.82-.61 2.75-.56 3.64.2 6.68 1.83 9.47 4.05.47.37.94.74 1.41 1.1.03.03.11 0 .44-.04-.22-1.42-.44-2.83-.7-4.54.91.05 1.65-.07 2.26.16 2.59.97 5.14 2.01 7.69 3.08.71.3 1.33.66 1.85-.22-.29-1.75-1.4-2.56-3.08-2.99-2.91-.75-5.77-1.68-8.65-2.56-.86-.26-1.71-.59-2.53-.96-1.58-.72-1.73-1.28-.76-2.78.32-.5.75-.95 1.09-1.44.22-.32.38-.69.7-1.3-.98-.08-1.73-.14-2.49-.2-4.87-.33-9.48-1.62-13.78-3.93-1.05-.56-2.06-1.27-2.93-2.08-1.13-1.05-.88-2.01.56-2.59.67-.27 1.38-.42 2.05-.69.58-.24 1.11-.58 2.07-1.08-.89-.26-1.32-.42-1.76-.52-4-.87-7.97-1.85-11.73-3.52-1.1-.48-2.18-1.04-3.19-1.68-.63-.4-1.11-1.02-1.86-1.75 1.9-1.53 3.6-2.89 5.3-4.26l-.12-.43c-.48-.03-.96-.1-1.45-.09-3.95.02-7.84-.41-11.46-2.06-1.95-.89-3.77-2.1-5.55-3.31-.93-.63-1.7-1.52-2.01-2.86 2.37-1.4 5.33-1.42 7.81-3.27-.64-.25-1.03-.47-1.45-.55-6.1-1.2-11.7-3.64-16.97-6.88-.97-.59-1.87-1.32-2.69-2.11-.78-.75-.67-1.36.31-1.84.91-.45 1.9-.73 2.88-1.03 2.06-.65 2.35-.77 3.65-1.94-7.71-1.4-13.49-5.7-18.66-11.28 1.52-1.22 3.19-1.32 4.71-1.77 1.48-.44 2.98-.82 4.5-1.43-3.97-1.2-7.54-3.05-10.85-5.4-3.28-2.32-6.47-4.75-8.97-8.23 2.43-1.59 5.08-1.6 7.7-2.41-6.29-4.47-11.34-9.85-15.87-16.16 1.63-.5 2.97-.9 4.52-1.37-4.88-4.11-8.58-8.82-10.5-14.83 1.2-.92 2.53-.3 3.91-.67-.3-.41-.54-.76-.82-1.09-7.56-8.86-14.52-18.15-20.6-28.09-1-1.63-1.96-3.3-2.55-5.39.54.08.95.06 1.29.2 2.98 1.28 6.03 2.43 8.91 3.91 8.9 4.57 17.48 9.68 25.67 15.44.29.2.59.37 1.16.73-.11-1.42-.19-2.57-.29-3.95 3.39.3 6.22 1.6 8.85 3.23 2.58 1.59 4.97 3.5 7.52 5.32.24-1.28.48-2.6.77-4.15 3.7 1.49 6.58 3.85 9.51 6.09 2.96 2.26 5.82 4.65 8.32 7.85.7-2.68.35-5.3 1.61-7.83.72.38 1.45.62 2.02 1.08 5.57 4.45 10.33 9.58 13.09 16.29.09.22.22.42.5.95.23-.71.44-1.15.52-1.62.28-1.72.49-3.46.78-5.18.15-.87.42-1.72.7-2.87 3.54 1.97 6 4.72 8.35 7.57 2.36 2.86 4.22 6 5.04 10.06.44-.65.79-.97.91-1.37.34-1.09.6-2.2.89-3.31.19-.76.31-1.54.58-2.27.46-1.24 1.04-1.41 2.01-.56.85.75 1.65 1.6 2.34 2.5 3.7 4.81 6.62 10.04 8.46 15.85.14.44.32.86.61 1.61 1.77-2.59 1.32-5.57 2.52-8.07 1.06-.03 1.82.56 2.56 1.15 1.85 1.51 3.22 3.41 4.34 5.49 1.86 3.44 2.91 7.11 3.23 11.01.05.58.14 1.15.23 1.82.92-.17 1.16-.84 1.49-1.36.64-1.02 1.18-2.1 1.83-3.11.64-.99 1.23-1.11 2.04-.27.87.9 1.66 1.92 2.31 2.99 2.21 3.62 3.67 7.57 5.01 11.58.19.56.39 1.12.6 1.74.84-.31.93-.98 1.08-1.6.2-.82.33-1.66.59-2.45.4-1.23 1.18-1.53 2.18-.71.91.76 1.74 1.67 2.42 2.65 2.8 4 4.55 8.46 5.48 13.25.16.82.3 1.64.51 2.81.68-.59 1.16-.99 1.62-1.4.41-.36.77-.77 1.21-1.08.99-.68 1.6-.57 2.26.43.4.6.7 1.26 1.04 1.9q.7 1.35 2.61 1.16c-.28-.86-.48-1.71-.84-2.49-1.73-3.77-3.53-7.52-5.25-11.3-.62-1.37-1.19-2.77-1.66-4.19-.57-1.73-.23-2.26 1.6-2.62.76-.15 1.56-.11 2.33-.19.5-.05 1-.16 1.78-.29-.56-.72-.92-1.19-1.28-1.65-3.89-4.86-6.7-10.28-8.1-16.37-.29-1.28-.49-2.62-.44-3.92.08-1.82 1.07-2.3 2.67-1.47.8.41 1.55.93 2.34 1.37.67.37 1.36.79 2.38.46-.36-.64-.66-1.2-.98-1.75-2.32-4.02-4.48-8.12-5.96-12.53-.48-1.42-.81-2.89-1.15-4.36-.12-.52-.14-1.08-.08-1.61.11-1.07.46-1.41 1.55-1.25 1.48.21 2.94.6 4.42.87.75.13 1.51.15 2.47-.11-.41-.47-.8-.96-1.23-1.42-3.6-3.91-6.39-8.31-7.78-13.48-.51-1.9-.66-3.9-.93-5.86-.06-.41 0-.84.06-1.26.35-2.48.93-2.75 3.13-1.49 1.57.9 3.11 1.84 4.71 2.68.59.31 1.3.41 2.27.7-.31-.67-.42-1-.6-1.3-3.87-6.35-6.26-13.26-7.61-20.54-.25-1.35-.28-2.76-.24-4.13.04-1.32.64-1.72 1.91-1.27.9.31 1.71.87 2.57 1.3 1.34.68 2.68 1.35 4.03 2 .3.14.67.15 1.45.31-2.82-3.92-4.18-8.03-4.82-12.38-.64-4.28-1.1-8.58-.23-12.89.97-.38 1.61.15 2.24.55 2.03 1.29 4.03 2.63 6.06 3.94.52.34 1.09.62 1.74.81-3.78-7.94-4.73-16.28-4.29-24.84.05-1.04.44-2.06.72-3.29 3.19 1.07 5.4 3.26 8.13 5.01-1.13-8.34-.35-16.33 1.13-24.27.14-.75.39-1.48.67-2.5 1.61 1.03 2.99 1.92 4.54 2.92.05-.49.14-.87.13-1.25-.3-5.82.85-11.37 3.12-16.72.3-.72.7-1.4 1.09-2.08.17-.31.43-.56.81-1.05l3.33 3.36c.29-2.25.5-4.26.81-6.25 2.04-12.97 4.47-25.85 8.67-38.33.43-1.28 1.06-2.5 1.78-4.15.59 1.17 1 1.88 1.31 2.63 1.94 4.75 3.17 9.72 4.36 14.7 2.02 8.43 3.67 16.94 4.96 25.51.22 1.49.34 2.99.52 4.48.05.39.13.77.23 1.37 1.13-1.2 2.1-2.23 3.28-3.49.62.99 1.15 1.69 1.52 2.47 2.39 5.09 3.62 10.44 3.62 16.07v2.74c1.56-.98 2.94-1.86 4.32-2.74 2.04 3.32 3.06 16.44 2.09 26.49 2.8-1.51 4.92-3.94 8.15-4.88.21.81.47 1.53.58 2.27.49 3.49.26 6.98-.09 10.46-.38 3.78-1.05 7.51-2.39 11.09-.52 1.39-1.17 2.74-1.95 4.55.87-.46 1.44-.7 1.94-1.03 1.97-1.27 3.91-2.6 5.9-3.85.63-.4 1.37-.63 2.34-1.06.87 4.65.55 8.99-.14 13.31-.68 4.31-1.9 8.44-4.73 12.1 1.17.28 1.98-.14 2.74-.53 1.23-.63 2.41-1.36 3.61-2.04.42-.24.83-.5 1.28-.67 1.59-.63 2.41-.18 2.3 1.51-.14 2.21-.4 4.44-.9 6.6-1.46 6.31-3.68 12.33-7.11 17.87-.09.15-.19.31-.25.48-.04.1 0 .23 0 .6.72-.21 1.43-.3 2.02-.61 1.8-.96 3.59-1.97 5.33-3.05 1.49-.92 2.04-.56 2.34 1.07.44 2.4.16 4.8-.46 7.16-1.42 5.42-4.21 10.08-8 14.17l-1.29 1.41c.06.12.11.24.17.36.68-.05 1.38-.03 2.05-.16 1.42-.26 2.81-.67 4.23-.89 1.59-.25 2.05.12 1.96 1.69a17.72 17.72 0 01-.68 3.89c-1.46 5-3.85 9.59-6.43 14.09-.32.56-.63 1.13-.73 2.02.64-.2 1.32-.34 1.92-.63.86-.42 1.65-1 2.51-1.43 1.62-.82 2.66-.29 2.64 1.49-.02 1.61-.21 3.25-.61 4.81-1.46 5.74-4.17 10.88-7.89 15.49-.37.46-.72.92-1.33 1.68 1 .11 1.68.23 2.36.25 3.79.12 4.38.9 2.9 4.37-1.46 3.43-3.15 6.76-4.7 10.16-.92 2.01-1.78 4.05-2.68 6.11 1.95.52 2.11.44 2.87-1.05.32-.64.66-1.29 1.1-1.85.76-.97 1.36-1.02 2.3-.25.65.54 1.2 1.18 1.82 1.75.2.18.49.27.89.49.19-1.02.36-1.88.51-2.75.83-4.9 2.79-9.32 5.61-13.38a13 13 0 012.04-2.28c1.17-1.03 1.88-.82 2.41.63.27.73.42 1.51.65 2.25.17.56.39 1.1.61 1.73.87-.43.83-1.17 1.02-1.75 1.27-3.84 2.66-7.62 4.7-11.12.66-1.14 1.42-2.25 2.29-3.23 1.13-1.28 1.7-1.16 2.61.32.54.87 1 1.79 1.54 2.66.34.54.76 1.02 1.14 1.53.13-.03.26-.06.38-.1l.36-2.95c.63-4.81 2.23-9.23 5.24-13.08 1.57-2 2.7-2.83 4.66-3.47 1.42 2.4.8 5.52 2.61 8.11.26-.66.44-1.07.58-1.5 1.89-5.92 4.82-11.28 8.64-16.16.7-.89 1.53-1.71 2.4-2.44.75-.63 1.36-.49 1.71.42.39 1 .55 2.09.82 3.13.34 1.3.41 2.72 1.66 3.98.87-3.97 2.79-7.17 5.18-10.12 3.3-4.07 6.52-6.83 8.44-7.12.26 1.52.53 3.04.78 4.57.25 1.51.48 3.03.95 4.58 1.64-3.78 3.82-7.11 6.46-10.14 2.61-2.99 5.3-5.89 9.01-7.95 1.43 2.49 1.05 5.16 1.64 7.85 5.17-5.63 11.03-10.17 17.79-14 .22.96.4 1.63.54 2.32.13.64.22 1.3.34 2.01.74.01 1.03-.59 1.44-.96 3.62-3.3 7.75-5.69 12.43-7.12.68-.21 1.39-.29 2.25-.47v3.9c.55-.35.98-.61 1.4-.89 9.34-6.43 19.05-12.22 29.27-17.13 1.93-.93 3.97-1.63 6.3-2.58-.18.79-.19 1.2-.36 1.53-1.12 2.13-2.15 4.32-3.44 6.34-5.9 9.26-12.4 18.07-19.65 26.32-.15.17-.28.37-.63.82 1.41.1 2.6.18 3.93.28-.27 2.27-1.27 4.06-2.34 5.78-1.08 1.73-2.29 3.39-3.56 4.99-1.25 1.58-2.65 3.05-3.95 4.53 1.04.3 2.33.67 3.94 1.14-4.5 6.33-9.61 11.65-15.76 16.18 2.54.9 5.22.85 7.4 2.3-1.85 4.31-11.3 10.88-19.69 13.68.48.25.8.49 1.16.59 1.74.49 3.49.92 5.22 1.41.91.26 1.79.61 2.68.92-.73 1.91-4.08 4.97-8.17 7.6-3.11 1.99-6.42 3.49-10.15 3.95-.02.13-.03.26-.05.39.7.39 1.37.85 2.11 1.14 1.12.44 2.29.74 3.43 1.12.74.25 1.49.51 1.82 1.47-.47 1.04-1.4 1.71-2.34 2.33-5.27 3.49-10.99 5.95-17.16 7.34-.64.14-1.28.29-2.27.52 2.36 2.06 5.34 1.98 7.68 3.31.24 1.11-.49 1.73-1.1 2.36-2.24 2.3-5.04 3.66-8.05 4.65-3 .98-6.1 1.37-9.25 1.4-.59 0-1.17 0-1.95.34.44.43.86.9 1.34 1.28.9.71 1.86 1.33 2.75 2.06 1.06.86 1.1 1.49 0 2.31-1.11.81-2.33 1.5-3.58 2.07-3.68 1.68-7.59 2.68-11.53 3.54-.57.13-1.14.28-1.76.44.47 1.04 1.38 1.12 2.13 1.43.67.27 1.4.4 2.03.71.96.48 1.16 1.26.43 2.05a11.7 11.7 0 01-2.51 2.03c-3.23 1.95-6.75 3.16-10.45 3.82-2.06.37-4.16.55-6.33.82-.07.81.55 1.26.96 1.79 1.84 2.37 1.73 2.99-1.05 3.94-3.3 1.13-6.63 2.17-9.99 3.08-1.64.45-2.86 1.16-3.35 2.99.26.85.88.76 1.63.39 1.62-.79 3.24-1.6 4.9-2.29 1.11-.45 2.28-.75 3.45-1.02.54-.13 1.13-.02 1.92-.02-.28 1.66-.51 3.04-.75 4.43l.29.2c.4-.3.82-.57 1.2-.9 2.29-1.93 4.83-3.38 7.75-4.09 1.94-.48 3.33-.41 4.79.25-.24 1.78-1.98 2.95-2.18 5.05 4.96-2.49 9.83-4.57 15.49-4.44.01 2.14-1.98 3.31-2.07 5.44 4.54-2.53 9.26-3.07 14.35-2.44-.51 2.17-2.39 3.48-3.16 5.71 4.37-1.95 8.73-2.51 13.21-2.31.87.04 1.73.25 2.98.45-1.09 1.66-1.99 3.02-2.99 4.54z"/>
    <path fill="none" stroke="#000" stroke-miterlimit="10" stroke-width="5" d="M475.94 257.47v-61.78L240.47 8.49l-236 191.4.55 288.07h238.67l.18-22.33"/>
  </g>
</svg>
