<svg xmlns="http://www.w3.org/2000/svg" data-name="Layer 2" viewBox="0 0 989.27 611.48">
  <g data-name="Artboard 1">
    <path stroke="#000" stroke-miterlimit="10" stroke-width="8" d="M446.34 0v426.64"/>
    <text transform="translate(518.04 323.82)" font-size="247.39" font-family="Georgia,Georgia">
      <tspan x="0" y="0">TGS</tspan>
    </text>
    <text transform="translate(10.27 535.08)" font-size="75.98" font-family="Georgia,Georgia">
      <tspan x="0" y="0">TINY GARDEN SOLUTIONS</tspan>
    </text>
    <text transform="translate(192.1 598.79)" font-family="Georgia,Georgia" font-size="41.87">
      <tspan x="0" y="0">YOUR TINY GARDEN SOLUTION</tspan>
    </text>
    <path d="M315.83 312.86c4.91-.34 9.55.05 14.3 1.22-.51.88-.9 1.55-1.4 2.41 3.97.28 7.77.7 11.24 2.97l-1.62 1.86c8.86 1.57 17.54 3.12 25.79 6.32l.03.47c-.64.28-1.26.65-1.94.82-4.3 1.05-8.59 2.15-12.92 3.02-3.32.67-6.71 1.01-10.06 1.5-.32.05-.63.17-1.1.3.56.61 1.01 1.09 1.56 1.69-1.69 1.23-3.57 1.73-5.47 2.06-1.9.33-3.84.42-5.89.63.41.78.8 1.51 1.31 2.47-4.79 1.04-9.43 1.32-14.37.73.91 1.46 1.7 2.75 2.62 4.23-2.73 1.06-5.28.43-7.79.17-2.56-.27-5-1.08-7.52-1.98.98 1.65 1.95 3.29 2.94 4.96-2.84 1.19-8.66.13-13.64-2.4-.24 1.93 1.78 3.04 1.7 5.08-.64.03-1.25.14-1.82.07-3.92-.53-7.58-1.86-11.05-3.75-.5-.27-.99-.56-1.7-.96.02 2 1.55 3.18 1.98 5.02-.59.11-1.16.29-1.74.31-2.13.09-4.13-.49-5.94-1.54-1.54-.88-2.93-2.02-4.37-3.05-.36-.25-.69-.54-1.4-1.09.2 1.35.34 2.28.49 3.21.2 1.28-.02 1.58-1.33 1.41-.84-.11-1.71-.31-2.48-.66-2.09-.95-4.14-2-6.2-3.02-.49-.24-.96-.51-1.44-.77-.09.08-.19.16-.28.23.43 1.01.86 2.03 1.3 3.07-.62.72-1.34.69-2.09.56-3.44-.56-6.42-2.13-9.17-4.19-.45-.34-.9-.69-1.61-1.23-.12.74-.22 1.26-.29 1.79-.19 1.32-.32 1.44-1.63 1.23-1.23-.2-1.78.73-2.81 1.54 3.47.41 6.77.58 9.14 3.62-1.2.5-2.2.92-3.21 1.35 3.34 1.24 6.62 2.23 9.53 4.79-1.3.56-2.3 1-3.31 1.43 3.19 1.03 5.71 2.79 8.08 5.34-1.46.47-2.64.85-4.08 1.32 3.46 1.41 6.38 3.11 8.73 6.11-1.2.37-2.11.64-3.26.99 2.55 2.16 4.85 4.28 6.68 7.02-.61.26-1.11.47-1.73.73 1.95 1.86 3.66 3.78 4.43 6.46-.54.14-.99.26-1.58.42 3.71 4.59 7.33 9.06 10.07 14.15.1.19.11.42.17.66-2.16-.23-2.71-.53-15.85-8.49-.1.5-.19.94-.3 1.45-1.42.05-2.56-.65-3.68-1.31-1.07-.64-2.05-1.43-3.14-2.2-.17.53-.32.99-.52 1.63-2.86-1.55-5.26-3.45-7.63-5.84-.24 1.21-.44 2.19-.69 3.42-3.07-2.03-5.14-4.63-7.03-7.65-.24 1.18-.48 2.36-.77 3.82-2.74-2.07-4.73-4.34-5.74-7.5-1.15.8-.56 2.27-1.53 3.19-2.72-2.35-4.05-5.56-5.7-8.76-.16.52-.33 1.04-.47 1.57-.13.49-.23 1-.36 1.57-.83.03-1.27-.53-1.71-1.01-1.36-1.49-2.1-3.28-2.49-5.23-.13-.65-.24-1.31-.42-2.33-.74 1.03-1.26 1.75-1.87 2.6-2.23-2-2.7-4.82-3.98-7.47-.41.87-.71 1.51-1 2.14-1.93-.75-3.12-2.96-4.33-8.03-.59.35-1.15.67-1.71.99-1.3-.81-1.47-2.2-1.97-3.39-.49-1.16-.97-2.32-1.42-3.41-.27-.02-.42-.08-.48-.03-1.2 1.02-1.64.97-2.1-.53-.48-1.59-.76-3.24-1.08-4.88-.18-.9-.28-1.81-.45-2.96-.59.48-1.03.84-1.54 1.24-1.05-.6-1.35-1.64-1.66-2.68-1.28-4.36-2.55-8.72-3.84-13.08-.16-.53-.38-1.05-.57-1.57h-.36c-.21 1.6-.46 3.2-.63 4.81-.93 8.83-1.59 17.68-1.09 26.55.29 5.17.92 10.32 1.53 15.46.81 6.82 1.02 13.66.77 20.52-.02.51-.13 1.02-.22 1.66h-3.36c0-.54-.01-.98 0-1.43.31-8.48-.39-16.91-1.27-25.33-.62-5.95-1.71-11.88-1.42-17.88.25-5.17.73-10.33 1.15-15.5.19-2.4.48-4.8.45-7.31-.24.57-.54 1.12-.7 1.71-.96 3.55-1.87 7.12-2.82 10.68-.29 1.09-.68 2.16-1.1 3.48-.65-.56-1.1-.95-1.76-1.52-.21 1.28-.38 2.38-.59 3.48-.23 1.24-.43 2.5-.77 3.71-.2.74-.65 1.41-1.06 2.28-.6-.49-.98-.8-1.39-1.14-.13.09-.32.15-.38.28-.65 1.47-1.28 2.95-1.93 4.42-.34.77-.54 1.65-1.43 2.18-.52-.33-1.02-.66-1.65-1.06-.91 3.06-1.45 6.24-4.28 8.4-.37-.89-.66-1.6-1.08-2.61-1.39 2.77-2 5.67-4.27 7.81-.35-.46-.61-.81-.87-1.16-.26-.35-.52-.71-.97-1.33-.15.71-.27 1.12-.33 1.54-.26 1.91-.85 3.71-2.03 5.26-.54.7-1.26 1.26-2.11 2.1-.4-1.4-.7-2.47-1.1-3.91-.35.73-.51 1.13-.72 1.5-1.06 1.97-2.09 3.96-3.22 5.89-.39.66-1.04 1.17-1.8 2-.42-1.35-.74-2.39-1.07-3.43-1.37 3.03-3.33 5.36-6.07 7.43-.3-1.42-.56-2.61-.89-4.14-1.76 3.25-3.73 5.94-6.71 7.83-.8-.88-.4-2.06-1.01-3.09-2.28 2.2-4.66 4.24-7.56 5.81-.16-.65-.27-1.12-.45-1.82-2.12 1.57-4.05 3.22-6.76 3.64-.08-.29-.15-.53-.22-.78-.05-.19-.11-.39-.2-.72-5.15 3.28-10.14 6.56-15.79 8.79.28-1.87 2.63-5.36 10.09-15.09-.49-.14-.93-.27-1.53-.44.86-2.55 2.41-4.56 4.48-6.42-.59-.27-1.08-.49-1.77-.81 1.87-2.58 4.04-4.81 6.76-6.93-1.11-.37-2.03-.69-3.21-1.08 2.23-2.95 5.14-4.64 8.7-6.07-1.49-.48-2.68-.86-3.99-1.28 1.05-1.53 2.35-2.48 3.74-3.28 1.32-.76 2.76-1.33 4.33-2.07-1.1-.47-2.07-.88-3.31-1.4 1.28-1.55 2.86-2.23 4.4-2.88 1.58-.67 3.22-1.16 5.21-1.86-1.27-.53-2.27-.95-3.28-1.37 1.09-2.23 2.9-3 8.61-3.68-.79-1.41-1.39-1.75-2.89-1.47-.81.15-1.21-.17-1.33-.93-.11-.65-.19-1.31-.32-2.22-.69.52-1.13.86-1.58 1.21-2.74 2.09-5.73 3.63-9.16 4.22-.28.05-.57.12-.85.11-1.11-.03-1.44-.54-.99-1.55.32-.71.66-1.41 1.07-2.26-.88-.14-1.27.36-1.75.58-2.45 1.14-4.88 2.31-7.34 3.41-.84.38-1.75.53-2.86.09.17-1.32.35-2.65.52-3.98-.09-.06-.18-.13-.27-.19-.41.34-.83.67-1.23 1.03-2.18 1.95-4.6 3.48-7.48 4.1-1.11.24-2.28.22-3.42.25-.3 0-.61-.22-.98-.36.48-1.7 1.9-2.93 2.11-4.98-4.35 2.57-8.7 4.3-13.45 4.85-.37.04-.76-.13-1.21-.21-.14-1.95 1.9-3.08 1.74-5.1-4.23 2.6-8.71 3.26-13.6 2.83.5-2.17 2.13-3.49 2.89-5.57-4.92 2.11-9.83 3.06-15.09 2.36.17-1.86 1.65-2.86 2.3-4.5-4.86.59-9.5.26-14.34-.73.52-.93.92-1.66 1.48-2.67-4.12.13-7.92-.38-11.55-2.42l1.67-1.85c-.72-.12-1.24-.22-1.77-.28-7.26-.87-14.45-2.13-21.48-4.16-.96-.28-1.89-.69-2.83-1.04v-.39c.71-.32 1.41-.68 2.14-.94 5.1-1.85 10.39-2.97 15.68-4.07 2.58-.54 5.19-.96 7.97-1.46-.56-.66-1.01-1.2-1.56-1.86 3.42-2.29 7.21-2.71 11.22-2.96-.48-.82-.87-1.49-1.41-2.41 4.72-1.22 9.35-1.57 14.3-1.24-.94-1.42-1.8-2.72-2.77-4.18 2.75-1.02 5.31-.62 7.85-.42 2.53.2 4.95.88 7.51 1.72-1.02-1.6-2.03-3.2-3.14-4.93 2.48-.84 4.81-.43 7.11-.19 2.34.25 4.55 1.03 6.72 2.36.03-2.07-1.95-3.17-1.91-5.24 5.37-.15 10.02 1.84 14.73 4.23-.08-1.98-1.71-3.1-2.1-4.78.79-.73 1.74-.59 2.63-.54 3.48.19 6.39 1.75 9.05 3.87.45.36.9.71 1.35 1.06.03.02.11 0 .42-.04-.21-1.35-.42-2.71-.67-4.34.87.05 1.58-.07 2.16.15 2.47.92 4.92 1.92 7.35 2.95.68.28 1.27.63 1.77-.21-.28-1.68-1.34-2.44-2.94-2.86-2.78-.72-5.52-1.6-8.27-2.45-.82-.25-1.63-.56-2.42-.92-1.51-.69-1.65-1.23-.73-2.66.31-.48.71-.9 1.04-1.38.21-.31.36-.66.67-1.24-.93-.07-1.66-.14-2.38-.19-4.66-.32-9.06-1.55-13.17-3.76-1-.54-1.97-1.21-2.8-1.98-1.08-1.01-.84-1.92.54-2.48.64-.26 1.32-.4 1.96-.66.55-.23 1.06-.55 1.98-1.04-.85-.25-1.26-.4-1.69-.49-3.83-.83-7.62-1.77-11.22-3.36-1.05-.46-2.08-.99-3.05-1.61-.6-.38-1.06-.98-1.78-1.67 1.82-1.46 3.44-2.76 5.07-4.07-.04-.14-.07-.27-.11-.41-.46-.03-.92-.09-1.38-.09-3.78.02-7.5-.39-10.96-1.97-1.87-.85-3.6-2.01-5.31-3.16-.89-.6-1.62-1.46-1.92-2.74 2.27-1.34 5.1-1.36 7.47-3.13-.62-.24-.99-.45-1.39-.53-5.83-1.15-11.19-3.48-16.22-6.58-.92-.57-1.79-1.27-2.57-2.02-.75-.72-.65-1.3.29-1.76.87-.43 1.82-.7 2.75-.99 1.97-.62 2.25-.74 3.49-1.86-7.37-1.34-12.9-5.45-17.84-10.79 1.46-1.16 3.05-1.26 4.5-1.7 1.42-.43 2.85-.79 4.3-1.37-3.79-1.15-7.21-2.92-10.37-5.16-3.13-2.22-6.19-4.54-8.57-7.87 2.32-1.52 4.86-1.53 7.36-2.3-6.02-4.27-10.84-9.42-15.18-15.45 1.56-.47 2.84-.86 4.32-1.31-4.66-3.93-8.2-8.43-10.04-14.18 1.14-.88 2.42-.29 3.74-.64-.29-.39-.52-.73-.78-1.04-7.22-8.47-13.89-17.35-19.69-26.86-.95-1.56-1.87-3.16-2.44-5.15.52.08.91.06 1.23.2 2.85 1.22 5.77 2.32 8.52 3.74 8.51 4.37 16.72 9.26 24.54 14.77.27.19.57.36 1.11.69-.1-1.36-.18-2.45-.28-3.78 3.24.29 5.94 1.53 8.47 3.08 2.47 1.52 4.75 3.34 7.19 5.08.23-1.23.46-2.49.73-3.97 3.54 1.43 6.29 3.68 9.1 5.83 2.83 2.16 5.56 4.44 7.95 7.5.67-2.56.33-5.07 1.54-7.48.69.36 1.39.6 1.93 1.03 5.33 4.26 9.87 9.16 12.51 15.58.08.21.21.4.48.91.22-.68.42-1.1.5-1.55.27-1.65.47-3.3.75-4.95.14-.83.4-1.65.67-2.74 3.38 1.89 5.74 4.51 7.99 7.24 2.26 2.73 4.03 5.74 4.82 9.62.42-.62.75-.93.87-1.31.33-1.04.58-2.1.85-3.16.19-.72.29-1.47.56-2.17.44-1.18.99-1.35 1.92-.53.82.72 1.58 1.53 2.24 2.39 3.54 4.6 6.33 9.6 8.08 15.16.13.42.31.82.58 1.54 1.69-2.48 1.26-5.32 2.41-7.71 1.02-.02 1.74.53 2.44 1.1 1.77 1.44 3.08 3.26 4.15 5.25 1.78 3.29 2.79 6.8 3.09 10.52.05.55.14 1.1.22 1.74.88-.16 1.11-.8 1.42-1.3.61-.98 1.12-2.01 1.75-2.97.61-.94 1.17-1.06 1.95-.25.83.86 1.58 1.83 2.21 2.85 2.11 3.46 3.51 7.24 4.79 11.07.18.54.37 1.07.57 1.66.8-.29.89-.94 1.03-1.53.19-.78.31-1.58.56-2.35.38-1.18 1.13-1.47 2.09-.67.87.72 1.67 1.6 2.32 2.53 2.68 3.83 4.35 8.09 5.24 12.67.15.78.28 1.57.49 2.69.65-.56 1.11-.95 1.55-1.34.39-.34.74-.74 1.16-1.03.95-.65 1.53-.54 2.16.41.38.57.67 1.2.99 1.82q.67 1.29 2.5 1.11c-.27-.82-.46-1.64-.8-2.38-1.65-3.61-3.37-7.19-5.02-10.8-.6-1.31-1.14-2.64-1.58-4.01-.54-1.66-.22-2.16 1.53-2.51.73-.14 1.49-.11 2.23-.18.48-.05.95-.15 1.7-.27-.54-.69-.88-1.14-1.22-1.57-3.72-4.65-6.41-9.83-7.75-15.65-.28-1.22-.47-2.51-.42-3.75.07-1.74 1.03-2.2 2.55-1.41.76.4 1.48.89 2.23 1.31.64.36 1.3.76 2.28.44-.34-.61-.63-1.15-.94-1.68-2.22-3.84-4.29-7.76-5.7-11.98-.46-1.36-.77-2.77-1.1-4.17a4.99 4.99 0 01-.08-1.54c.11-1.02.44-1.34 1.48-1.2 1.42.2 2.81.58 4.23.83.71.13 1.44.14 2.36-.11-.39-.45-.77-.92-1.17-1.36-3.44-3.74-6.11-7.95-7.44-12.88-.49-1.82-.63-3.73-.89-5.6-.06-.39 0-.81.05-1.2.34-2.37.89-2.63 2.99-1.42 1.5.86 2.98 1.75 4.5 2.56.57.3 1.24.39 2.17.67-.29-.64-.4-.96-.57-1.24-3.7-6.07-5.99-12.68-7.28-19.63-.24-1.29-.27-2.64-.23-3.95.04-1.27.61-1.64 1.83-1.22.86.3 1.63.83 2.45 1.24 1.28.65 2.56 1.29 3.85 1.91.29.14.64.14 1.39.29-2.7-3.75-4-7.68-4.61-11.84-.61-4.1-1.05-8.2-.22-12.32.92-.37 1.54.15 2.15.53 1.94 1.23 3.86 2.52 5.79 3.76.5.32 1.04.59 1.66.77-3.61-7.59-4.52-15.56-4.1-23.75.05-.99.42-1.97.68-3.14 3.05 1.02 5.16 3.12 7.77 4.79-1.08-7.98-.33-15.61 1.08-23.21.13-.72.38-1.42.64-2.39 1.54.99 2.86 1.84 4.34 2.79.05-.47.14-.84.12-1.19-.29-5.57.82-10.87 2.98-15.98.29-.69.67-1.34 1.04-1.99.17-.29.41-.54.77-1 1.04 1.05 2.02 2.03 3.18 3.21.28-2.15.48-4.07.78-5.97 1.95-12.4 4.28-24.72 8.29-36.65.41-1.23 1.02-2.39 1.7-3.97.56 1.12.96 1.8 1.25 2.52 1.85 4.54 3.03 9.29 4.17 14.05a288.4 288.4 0 014.74 24.39c.21 1.42.32 2.86.49 4.29.04.37.12.74.22 1.31 1.08-1.15 2.01-2.13 3.14-3.33.59.95 1.1 1.61 1.45 2.36 2.29 4.86 3.46 9.98 3.46 15.37v2.62c1.49-.94 2.81-1.78 4.13-2.62 1.95 3.17 2.92 15.72 2 25.32 2.67-1.44 4.7-3.77 7.79-4.67.2.77.45 1.46.55 2.17.47 3.33.25 6.68-.08 10-.36 3.61-1 7.18-2.29 10.6-.5 1.33-1.12 2.62-1.86 4.35.83-.44 1.37-.67 1.86-.98 1.89-1.22 3.74-2.48 5.64-3.68.6-.38 1.31-.6 2.24-1.02.83 4.45.52 8.6-.13 12.73-.65 4.12-1.82 8.07-4.52 11.57 1.12.26 1.89-.14 2.62-.51 1.18-.6 2.3-1.3 3.45-1.95.4-.23.8-.47 1.22-.64 1.52-.6 2.3-.17 2.2 1.44-.14 2.11-.38 4.25-.86 6.31-1.39 6.03-3.52 11.79-6.8 17.09-.09.15-.18.3-.23.46-.03.1 0 .22 0 .57.69-.2 1.37-.28 1.93-.58 1.72-.92 3.43-1.89 5.09-2.91 1.43-.88 1.95-.53 2.24 1.02.42 2.29.16 4.59-.44 6.84-1.36 5.19-4.03 9.63-7.65 13.54l-1.23 1.35c.05.12.11.23.16.35.65-.05 1.32-.03 1.96-.15 1.36-.25 2.69-.64 4.05-.85 1.52-.24 1.96.12 1.87 1.62-.07 1.25-.29 2.52-.65 3.72-1.4 4.78-3.68 9.17-6.15 13.47-.31.54-.6 1.08-.7 1.93.61-.19 1.26-.32 1.84-.6.83-.4 1.58-.95 2.4-1.37 1.55-.78 2.54-.28 2.52 1.43-.02 1.54-.2 3.11-.58 4.6-1.4 5.49-3.99 10.4-7.54 14.81-.35.44-.69.88-1.27 1.61.96.1 1.61.22 2.26.24 3.63.12 4.19.86 2.77 4.17-1.4 3.28-3.01 6.47-4.5 9.71-.88 1.92-1.7 3.88-2.57 5.85 1.87.5 2.02.42 2.74-1.01.31-.61.63-1.24 1.05-1.77.72-.92 1.3-.98 2.2-.24.62.51 1.15 1.13 1.74 1.67.19.17.47.26.85.46.18-.97.35-1.8.49-2.62.79-4.68 2.67-8.91 5.36-12.79.55-.8 1.22-1.54 1.95-2.18 1.12-.98 1.8-.78 2.3.6.25.7.4 1.44.63 2.15.17.53.37 1.05.58 1.66.83-.41.79-1.12.98-1.67 1.21-3.67 2.54-7.29 4.49-10.63.63-1.09 1.36-2.15 2.19-3.09 1.08-1.22 1.63-1.11 2.5.3.51.83.95 1.71 1.47 2.54.32.51.72.98 1.09 1.46l.37-.09c.12-.94.23-1.88.35-2.82.6-4.6 2.13-8.82 5.01-12.51 1.5-1.91 2.58-2.71 4.45-3.32 1.35 2.3.77 5.27 2.5 7.75.24-.63.42-1.03.55-1.44 1.81-5.66 4.61-10.78 8.26-15.45.67-.85 1.46-1.64 2.29-2.33.72-.6 1.3-.46 1.63.4.37.96.52 1.99.78 2.99.32 1.24.39 2.6 1.59 3.8.83-3.8 2.67-6.86 4.95-9.68 3.16-3.89 6.23-6.53 8.07-6.81.25 1.45.51 2.91.75 4.36.24 1.45.45 2.9.91 4.38 1.57-3.62 3.65-6.8 6.18-9.69 2.49-2.86 5.07-5.63 8.61-7.6 1.37 2.38 1 4.93 1.57 7.51 4.94-5.39 10.55-9.73 17.01-13.39.21.92.38 1.56.51 2.21.12.62.21 1.24.32 1.92.71.01.99-.56 1.37-.92 3.46-3.15 7.41-5.44 11.88-6.81.65-.2 1.33-.28 2.15-.45v3.72c.52-.33.94-.58 1.33-.85 8.93-6.15 18.21-11.69 27.99-16.38 1.85-.89 3.8-1.56 6.03-2.47-.17.76-.18 1.15-.34 1.46-1.07 2.03-2.06 4.13-3.29 6.06-5.64 8.85-11.86 17.28-18.79 25.17-.15.17-.27.35-.6.79 1.35.09 2.48.17 3.76.26-.26 2.17-1.22 3.89-2.24 5.53a53.044 53.044 0 01-3.41 4.77c-1.2 1.51-2.53 2.91-3.77 4.33 1 .29 2.23.64 3.76 1.09-4.3 6.05-9.19 11.14-15.07 15.47 2.42.86 4.99.81 7.07 2.2-1.77 4.12-10.8 10.4-18.82 13.08.46.24.77.47 1.11.56 1.66.47 3.34.88 4.99 1.35.87.25 1.71.59 2.56.88-.69 1.83-3.9 4.75-7.81 7.26-2.97 1.91-6.13 3.34-9.7 3.78-.02.12-.03.25-.05.37.67.37 1.31.82 2.02 1.09 1.07.42 2.19.71 3.28 1.07.71.24 1.42.49 1.74 1.4-.45.99-1.34 1.63-2.24 2.23-5.04 3.34-10.5 5.69-16.4 7.02-.61.14-1.22.28-2.17.49 2.26 1.97 5.11 1.89 7.34 3.16.23 1.06-.47 1.66-1.05 2.25-2.15 2.2-4.82 3.5-7.7 4.44-2.87.94-5.83 1.31-8.84 1.34-.56 0-1.12 0-1.86.32.42.41.82.86 1.28 1.22.86.68 1.78 1.28 2.63 1.97 1.01.82 1.06 1.43 0 2.21s-2.22 1.44-3.42 1.98c-3.52 1.61-7.26 2.56-11.02 3.39-.55.12-1.09.27-1.69.42.45.99 1.31 1.07 2.03 1.37.64.26 1.34.38 1.94.68.92.46 1.11 1.21.41 1.96-.7.75-1.52 1.41-2.4 1.94-3.09 1.86-6.46 3.02-9.99 3.65-1.97.35-3.98.52-6.05.79-.07.77.52 1.2.92 1.71 1.76 2.27 1.66 2.86-1 3.77a159.53 159.53 0 01-9.55 2.95c-1.57.43-2.73 1.11-3.21 2.86.25.81.84.72 1.56.38 1.55-.75 3.1-1.53 4.69-2.19 1.06-.43 2.18-.72 3.3-.98.51-.12 1.08-.02 1.84-.02-.27 1.59-.49 2.91-.72 4.24.09.06.18.13.27.19.38-.28.78-.55 1.14-.86 2.19-1.85 4.62-3.23 7.41-3.91 1.86-.46 3.19-.39 4.58.24-.23 1.7-1.89 2.82-2.09 4.82 4.74-2.38 9.39-4.37 14.81-4.25.01 2.04-1.89 3.16-1.98 5.2 4.34-2.41 8.85-2.93 13.72-2.33-.49 2.08-2.29 3.33-3.02 5.46 4.18-1.87 8.35-2.4 12.63-2.21.83.04 1.66.24 2.85.43-1.04 1.58-1.9 2.89-2.86 4.34z"/>
  </g>
</svg>
